<svg xmlns="http://www.w3.org/2000/svg" xmlns:xlink="http://www.w3.org/1999/xlink" width="250" zoomAndPan="magnify" viewBox="0 0 187.5 112.499997" height="150" preserveAspectRatio="xMidYMid meet" version="1.0"><defs><g/><clipPath id="0366da7d5e"><path d="M 3.320312 32.699219 L 42 32.699219 L 42 78.992188 L 3.320312 78.992188 Z M 3.320312 32.699219 " clip-rule="nonzero"/></clipPath><clipPath id="8c1adb1747"><rect x="0" width="141" y="0" height="23"/></clipPath></defs><g clip-path="url(#0366da7d5e)"><path fill="#38b6ff" d="M 34.257812 79.292969 C 32.199219 79.292969 30.269531 78.492188 28.816406 77.039062 L 18.652344 66.878906 L 16.453125 69.078125 C 14.210938 71.320312 11 71.957031 8.070312 70.742188 C 5.140625 69.53125 3.320312 66.808594 3.320312 63.636719 L 3.320312 48.359375 C 3.320312 45.1875 5.140625 42.464844 8.070312 41.25 C 11 40.035156 14.214844 40.675781 16.457031 42.917969 L 18.65625 45.117188 L 28.816406 34.953125 C 30.269531 33.503906 32.199219 32.703125 34.257812 32.703125 C 37.425781 32.703125 40.152344 34.523438 41.367188 37.453125 C 42.578125 40.382812 41.941406 43.59375 39.699219 45.839844 L 29.535156 56 L 39.699219 66.160156 C 41.941406 68.402344 42.578125 71.617188 41.367188 74.546875 C 40.152344 77.472656 37.425781 79.292969 34.257812 79.292969 Z M 21.574219 63.957031 L 31.734375 74.121094 C 32.410156 74.792969 33.304688 75.164062 34.257812 75.164062 C 35.75 75.164062 36.980469 74.34375 37.550781 72.964844 C 38.121094 71.585938 37.832031 70.132812 36.777344 69.078125 L 26.613281 58.917969 Z M 11.054688 44.777344 C 10.589844 44.777344 10.117188 44.871094 9.648438 45.066406 C 8.269531 45.636719 7.449219 46.867188 7.449219 48.359375 L 7.449219 63.636719 C 7.449219 65.128906 8.269531 66.359375 9.648438 66.929688 C 11.027344 67.5 12.480469 67.210938 13.535156 66.15625 L 15.730469 63.957031 L 13.210938 61.4375 C 11.757812 59.984375 10.957031 58.050781 10.957031 55.996094 C 10.957031 53.941406 11.757812 52.007812 13.210938 50.554688 L 15.730469 48.03125 L 13.535156 45.832031 C 12.839844 45.136719 11.964844 44.777344 11.054688 44.777344 Z M 21.175781 53.476562 C 19.78125 52.082031 17.527344 52.082031 16.132812 53.476562 C 15.460938 54.148438 15.089844 55.042969 15.089844 55.996094 C 15.089844 56.949219 15.460938 57.84375 16.132812 58.519531 C 17.527344 59.914062 19.78125 59.914062 21.175781 58.519531 C 22.566406 57.128906 22.566406 54.867188 21.175781 53.476562 Z M 21.574219 48.035156 L 26.613281 53.074219 L 36.777344 42.914062 C 37.832031 41.859375 38.121094 40.40625 37.550781 39.03125 C 36.980469 37.652344 35.75 36.828125 34.257812 36.828125 C 33.304688 36.828125 32.410156 37.199219 31.734375 37.871094 Z M 21.574219 48.035156 " fill-opacity="1" fill-rule="nonzero"/></g><g transform="matrix(1, 0, 0, 1, 45, 44)"><g clip-path="url(#8c1adb1747)"><g fill="#ffffff" fill-opacity="1"><g transform="translate(0.863561, 17.737895)"><g><path d="M 1.078125 0 L 1.078125 -15.15625 L 8.921875 -15.15625 C 9.921875 -15.15625 10.800781 -15 11.5625 -14.6875 C 12.332031 -14.382812 12.9375 -13.914062 13.375 -13.28125 C 13.8125 -12.644531 14.03125 -11.820312 14.03125 -10.8125 C 14.03125 -10.34375 13.882812 -9.851562 13.59375 -9.34375 C 13.3125 -8.832031 12.894531 -8.429688 12.34375 -8.140625 C 12.90625 -7.992188 13.375 -7.734375 13.75 -7.359375 C 14.125 -6.984375 14.410156 -6.554688 14.609375 -6.078125 C 14.804688 -5.609375 14.90625 -5.140625 14.90625 -4.671875 C 14.90625 -3.835938 14.738281 -3.117188 14.40625 -2.515625 C 14.082031 -1.921875 13.644531 -1.4375 13.09375 -1.0625 C 12.550781 -0.695312 11.941406 -0.425781 11.265625 -0.25 C 10.585938 -0.0820312 9.882812 0 9.15625 0 Z M 4 -9.125 L 9.09375 -9.125 C 9.675781 -9.132812 10.164062 -9.257812 10.5625 -9.5 C 10.957031 -9.75 11.15625 -10.195312 11.15625 -10.84375 C 11.15625 -11.3125 11.046875 -11.675781 10.828125 -11.9375 C 10.609375 -12.195312 10.332031 -12.382812 10 -12.5 C 9.664062 -12.613281 9.3125 -12.671875 8.9375 -12.671875 L 4 -12.671875 Z M 4 -2.484375 L 9.15625 -2.484375 C 9.644531 -2.503906 10.101562 -2.578125 10.53125 -2.703125 C 10.957031 -2.835938 11.300781 -3.054688 11.5625 -3.359375 C 11.820312 -3.660156 11.953125 -4.078125 11.953125 -4.609375 C 11.953125 -5.148438 11.8125 -5.570312 11.53125 -5.875 C 11.257812 -6.175781 10.910156 -6.382812 10.484375 -6.5 C 10.066406 -6.625 9.625 -6.6875 9.15625 -6.6875 L 4 -6.6875 Z M 4 -2.484375 "/></g></g></g><g fill="#ffffff" fill-opacity="1"><g transform="translate(16.453308, 17.737895)"><g><path d="M 8.859375 0.234375 C 7.890625 0.234375 6.9375 0.0625 6 -0.28125 C 5.070312 -0.625 4.234375 -1.140625 3.484375 -1.828125 C 2.742188 -2.523438 2.15625 -3.394531 1.71875 -4.4375 C 1.28125 -5.476562 1.0625 -6.691406 1.0625 -8.078125 L 1.0625 -15.15625 L 4.078125 -15.15625 L 4.078125 -8.078125 C 4.078125 -6.796875 4.3125 -5.722656 4.78125 -4.859375 C 5.25 -4.003906 5.847656 -3.363281 6.578125 -2.9375 C 7.304688 -2.507812 8.054688 -2.296875 8.828125 -2.296875 C 9.628906 -2.296875 10.390625 -2.507812 11.109375 -2.9375 C 11.828125 -3.363281 12.421875 -4.003906 12.890625 -4.859375 C 13.359375 -5.722656 13.59375 -6.796875 13.59375 -8.078125 L 13.59375 -15.15625 L 16.609375 -15.15625 L 16.609375 -8.078125 C 16.609375 -6.691406 16.390625 -5.476562 15.953125 -4.4375 C 15.515625 -3.394531 14.925781 -2.523438 14.1875 -1.828125 C 13.445312 -1.140625 12.613281 -0.625 11.6875 -0.28125 C 10.769531 0.0625 9.828125 0.234375 8.859375 0.234375 Z M 8.859375 0.234375 "/></g></g></g><g fill="#ffffff" fill-opacity="1"><g transform="translate(34.598043, 17.737895)"><g><path d="M 8.859375 0.234375 C 7.890625 0.234375 6.9375 0.0625 6 -0.28125 C 5.070312 -0.625 4.234375 -1.140625 3.484375 -1.828125 C 2.742188 -2.523438 2.15625 -3.394531 1.71875 -4.4375 C 1.28125 -5.476562 1.0625 -6.691406 1.0625 -8.078125 L 1.0625 -15.15625 L 4.078125 -15.15625 L 4.078125 -8.078125 C 4.078125 -6.796875 4.3125 -5.722656 4.78125 -4.859375 C 5.25 -4.003906 5.847656 -3.363281 6.578125 -2.9375 C 7.304688 -2.507812 8.054688 -2.296875 8.828125 -2.296875 C 9.628906 -2.296875 10.390625 -2.507812 11.109375 -2.9375 C 11.828125 -3.363281 12.421875 -4.003906 12.890625 -4.859375 C 13.359375 -5.722656 13.59375 -6.796875 13.59375 -8.078125 L 13.59375 -15.15625 L 16.609375 -15.15625 L 16.609375 -8.078125 C 16.609375 -6.691406 16.390625 -5.476562 15.953125 -4.4375 C 15.515625 -3.394531 14.925781 -2.523438 14.1875 -1.828125 C 13.445312 -1.140625 12.613281 -0.625 11.6875 -0.28125 C 10.769531 0.0625 9.828125 0.234375 8.859375 0.234375 Z M 8.859375 0.234375 "/></g></g></g><g fill="#ffffff" fill-opacity="1"><g transform="translate(52.071546, 17.737895)"><g><path d="M 0.765625 0 L -0.15625 -2.296875 L 8.03125 -10.140625 L 10.9375 -12.46875 L 0.515625 -12.46875 L 0.515625 -15.109375 L 14.1875 -15.109375 L 14.96875 -12.96875 L 6.40625 -4.84375 L 3.75 -2.65625 L 14.828125 -2.65625 L 14.828125 0 Z M 0.765625 0 "/></g></g></g><g fill="#ffffff" fill-opacity="1"><g transform="translate(68.159312, 17.737895)"><g><path d="M 0.765625 0 L -0.15625 -2.296875 L 8.03125 -10.140625 L 10.9375 -12.46875 L 0.515625 -12.46875 L 0.515625 -15.109375 L 14.1875 -15.109375 L 14.96875 -12.96875 L 6.40625 -4.84375 L 3.75 -2.65625 L 14.828125 -2.65625 L 14.828125 0 Z M 0.765625 0 "/></g></g></g><g fill="#ffffff" fill-opacity="1"><g transform="translate(83.337662, 17.737895)"><g><path d="M 1.0625 0 L 1.0625 -15.15625 L 13.1875 -15.15625 L 13.1875 -12.578125 L 3.96875 -12.578125 L 3.96875 -8.8125 L 12.828125 -8.8125 L 12.828125 -6.328125 L 3.96875 -6.328125 L 3.96875 -2.578125 L 13.1875 -2.578125 L 13.1875 0 Z M 1.0625 0 "/></g></g></g><g fill="#ffffff" fill-opacity="1"><g transform="translate(97.325126, 17.737895)"><g><path d="M 1.078125 0 L 1.078125 -15.15625 L 8.921875 -15.15625 C 9.585938 -15.15625 10.316406 -15.066406 11.109375 -14.890625 C 11.898438 -14.722656 12.609375 -14.394531 13.234375 -13.90625 C 13.765625 -13.46875 14.175781 -12.921875 14.46875 -12.265625 C 14.757812 -11.609375 14.90625 -10.941406 14.90625 -10.265625 C 14.90625 -9.597656 14.75 -8.925781 14.4375 -8.25 C 14.125 -7.582031 13.6875 -7.019531 13.125 -6.5625 C 12.382812 -5.988281 11.4375 -5.671875 10.28125 -5.609375 L 15.078125 -0.125 L 15.078125 0 L 11.671875 0 L 6.890625 -5.515625 L 4.09375 -5.515625 L 4.09375 0 Z M 4.09375 -7.984375 L 9.140625 -7.984375 C 10.015625 -7.984375 10.691406 -8.164062 11.171875 -8.53125 C 11.648438 -8.90625 11.890625 -9.488281 11.890625 -10.28125 C 11.890625 -11.15625 11.597656 -11.757812 11.015625 -12.09375 C 10.441406 -12.4375 9.742188 -12.609375 8.921875 -12.609375 L 4.09375 -12.609375 Z M 4.09375 -7.984375 "/></g></g></g><g fill="#ffffff" fill-opacity="1"><g transform="translate(112.78496, 17.737895)"><g><path d="M 0.6875 0 L 0.6875 -2.59375 L 3.265625 -2.59375 L 3.265625 0 Z M 0.6875 0 "/></g></g></g><g fill="#ffffff" fill-opacity="1"><g transform="translate(117.115438, 17.737895)"><g><path d="M 1.078125 0 L 1.078125 -15.15625 L 4.09375 -15.15625 L 4.09375 0 Z M 1.078125 0 "/></g></g></g><g fill="#ffffff" fill-opacity="1"><g transform="translate(123.091495, 17.737895)"><g><path d="M 8.375 0.21875 C 7.226562 0.21875 6.164062 0.0234375 5.1875 -0.359375 C 4.207031 -0.742188 3.359375 -1.285156 2.640625 -1.984375 C 1.929688 -2.691406 1.378906 -3.523438 0.984375 -4.484375 C 0.585938 -5.453125 0.390625 -6.503906 0.390625 -7.640625 C 0.390625 -8.785156 0.585938 -9.832031 0.984375 -10.78125 C 1.378906 -11.738281 1.929688 -12.566406 2.640625 -13.265625 C 3.359375 -13.960938 4.207031 -14.503906 5.1875 -14.890625 C 6.164062 -15.273438 7.226562 -15.46875 8.375 -15.46875 C 9.550781 -15.46875 10.625 -15.273438 11.59375 -14.890625 C 12.570312 -14.503906 13.414062 -13.960938 14.125 -13.265625 C 14.84375 -12.566406 15.394531 -11.738281 15.78125 -10.78125 C 16.175781 -9.832031 16.375 -8.785156 16.375 -7.640625 C 16.375 -6.503906 16.175781 -5.453125 15.78125 -4.484375 C 15.394531 -3.523438 14.84375 -2.691406 14.125 -1.984375 C 13.414062 -1.285156 12.570312 -0.742188 11.59375 -0.359375 C 10.625 0.0234375 9.550781 0.21875 8.375 0.21875 Z M 8.375 -2.359375 C 9.363281 -2.359375 10.234375 -2.585938 10.984375 -3.046875 C 11.734375 -3.515625 12.316406 -4.144531 12.734375 -4.9375 C 13.148438 -5.726562 13.359375 -6.628906 13.359375 -7.640625 C 13.359375 -8.648438 13.148438 -9.550781 12.734375 -10.34375 C 12.316406 -11.144531 11.734375 -11.769531 10.984375 -12.21875 C 10.234375 -12.675781 9.363281 -12.90625 8.375 -12.90625 C 7.414062 -12.90625 6.554688 -12.675781 5.796875 -12.21875 C 5.046875 -11.769531 4.460938 -11.144531 4.046875 -10.34375 C 3.628906 -9.550781 3.421875 -8.648438 3.421875 -7.640625 C 3.421875 -6.628906 3.628906 -5.726562 4.046875 -4.9375 C 4.460938 -4.144531 5.046875 -3.515625 5.796875 -3.046875 C 6.554688 -2.585938 7.414062 -2.359375 8.375 -2.359375 Z M 8.375 -2.359375 "/></g></g></g></g></g></svg>