<svg xmlns="http://www.w3.org/2000/svg" xmlns:xlink="http://www.w3.org/1999/xlink" width="250" zoomAndPan="magnify" viewBox="0 0 187.5 74.999997" height="100" preserveAspectRatio="xMidYMid meet" version="1.0"><defs><g/><clipPath id="1d8100489b"><path d="M 20.375 18.453125 L 52 18.453125 L 52 56.601562 L 20.375 56.601562 Z M 20.375 18.453125 " clip-rule="nonzero"/></clipPath><clipPath id="b1bbe0e3e1"><rect x="0" width="115" y="0" height="19"/></clipPath></defs><g clip-path="url(#1d8100489b)"><path fill="#38b6ff" d="M 45.65625 56.535156 C 43.976562 56.535156 42.398438 55.882812 41.207031 54.695312 L 32.90625 46.390625 L 31.109375 48.1875 C 29.277344 50.019531 26.648438 50.542969 24.253906 49.550781 C 21.863281 48.558594 20.375 46.332031 20.375 43.742188 L 20.375 31.257812 C 20.375 28.664062 21.863281 26.441406 24.257812 25.445312 C 26.648438 24.457031 29.277344 24.976562 31.109375 26.808594 L 32.90625 28.605469 L 41.210938 20.300781 C 42.394531 19.117188 43.976562 18.460938 45.65625 18.460938 C 48.246094 18.460938 50.472656 19.949219 51.464844 22.34375 C 52.457031 24.738281 51.933594 27.363281 50.101562 29.195312 L 41.796875 37.5 L 50.101562 45.804688 C 51.933594 47.636719 52.457031 50.261719 51.464844 52.65625 C 50.472656 55.050781 48.246094 56.535156 45.65625 56.535156 Z M 35.289062 44.003906 L 43.59375 52.308594 C 44.144531 52.859375 44.875 53.160156 45.65625 53.160156 C 46.875 53.160156 47.878906 52.488281 48.347656 51.363281 C 48.8125 50.238281 48.578125 49.050781 47.714844 48.1875 L 39.410156 39.882812 Z M 26.695312 28.328125 C 26.316406 28.328125 25.925781 28.40625 25.546875 28.566406 C 24.417969 29.03125 23.746094 30.035156 23.746094 31.257812 L 23.746094 43.742188 C 23.746094 44.960938 24.417969 45.96875 25.546875 46.433594 C 26.671875 46.898438 27.859375 46.664062 28.71875 45.800781 L 30.515625 44.003906 L 28.457031 41.945312 C 27.269531 40.757812 26.613281 39.175781 26.613281 37.496094 C 26.613281 35.816406 27.269531 34.238281 28.457031 33.050781 L 30.515625 30.988281 L 28.71875 29.191406 C 28.152344 28.625 27.4375 28.328125 26.695312 28.328125 Z M 34.964844 35.4375 C 33.828125 34.300781 31.984375 34.300781 30.84375 35.4375 C 30.292969 35.988281 29.992188 36.71875 29.992188 37.5 C 29.992188 38.277344 30.296875 39.007812 30.84375 39.558594 C 31.984375 40.699219 33.828125 40.699219 34.964844 39.558594 C 36.105469 38.421875 36.105469 36.578125 34.964844 35.4375 Z M 35.289062 30.992188 L 39.410156 35.113281 L 47.714844 26.808594 C 48.578125 25.945312 48.8125 24.757812 48.347656 23.632812 C 47.878906 22.507812 46.875 21.835938 45.65625 21.835938 C 44.878906 21.835938 44.144531 22.136719 43.59375 22.6875 Z M 35.289062 30.992188 " fill-opacity="1" fill-rule="nonzero"/></g><g transform="matrix(1, 0, 0, 1, 55, 28)"><g clip-path="url(#b1bbe0e3e1)"><g fill="#ffffff" fill-opacity="1"><g transform="translate(0.146562, 14.188897)"><g><path d="M 0.890625 0 L 0.890625 -12.390625 L 7.296875 -12.390625 C 8.109375 -12.390625 8.828125 -12.257812 9.453125 -12 C 10.078125 -11.75 10.566406 -11.363281 10.921875 -10.84375 C 11.285156 -10.332031 11.46875 -9.660156 11.46875 -8.828125 C 11.46875 -8.453125 11.347656 -8.054688 11.109375 -7.640625 C 10.878906 -7.222656 10.539062 -6.894531 10.09375 -6.65625 C 10.550781 -6.539062 10.929688 -6.328125 11.234375 -6.015625 C 11.546875 -5.710938 11.78125 -5.363281 11.9375 -4.96875 C 12.101562 -4.582031 12.1875 -4.203125 12.1875 -3.828125 C 12.1875 -3.140625 12.050781 -2.550781 11.78125 -2.0625 C 11.519531 -1.570312 11.160156 -1.175781 10.703125 -0.875 C 10.253906 -0.570312 9.753906 -0.347656 9.203125 -0.203125 C 8.648438 -0.0664062 8.078125 0 7.484375 0 Z M 3.28125 -7.453125 L 7.4375 -7.453125 C 7.90625 -7.460938 8.300781 -7.566406 8.625 -7.765625 C 8.945312 -7.972656 9.109375 -8.34375 9.109375 -8.875 C 9.109375 -9.25 9.019531 -9.539062 8.84375 -9.75 C 8.675781 -9.96875 8.453125 -10.125 8.171875 -10.21875 C 7.898438 -10.3125 7.613281 -10.359375 7.3125 -10.359375 L 3.28125 -10.359375 Z M 3.28125 -2.03125 L 7.484375 -2.03125 C 7.890625 -2.039062 8.265625 -2.097656 8.609375 -2.203125 C 8.960938 -2.316406 9.242188 -2.492188 9.453125 -2.734375 C 9.660156 -2.984375 9.765625 -3.328125 9.765625 -3.765625 C 9.765625 -4.203125 9.648438 -4.546875 9.421875 -4.796875 C 9.203125 -5.046875 8.921875 -5.21875 8.578125 -5.3125 C 8.234375 -5.414062 7.867188 -5.46875 7.484375 -5.46875 L 3.28125 -5.46875 Z M 3.28125 -2.03125 "/></g></g></g><g fill="#ffffff" fill-opacity="1"><g transform="translate(12.888661, 14.188897)"><g><path d="M 7.234375 0.1875 C 6.441406 0.1875 5.664062 0.046875 4.90625 -0.234375 C 4.144531 -0.515625 3.460938 -0.9375 2.859375 -1.5 C 2.253906 -2.070312 1.769531 -2.78125 1.40625 -3.625 C 1.050781 -4.476562 0.875 -5.472656 0.875 -6.609375 L 0.875 -12.390625 L 3.328125 -12.390625 L 3.328125 -6.609375 C 3.328125 -5.554688 3.519531 -4.675781 3.90625 -3.96875 C 4.289062 -3.269531 4.78125 -2.742188 5.375 -2.390625 C 5.96875 -2.046875 6.582031 -1.875 7.21875 -1.875 C 7.875 -1.875 8.492188 -2.046875 9.078125 -2.390625 C 9.671875 -2.742188 10.160156 -3.269531 10.546875 -3.96875 C 10.929688 -4.675781 11.125 -5.554688 11.125 -6.609375 L 11.125 -12.390625 L 13.578125 -12.390625 L 13.578125 -6.609375 C 13.578125 -5.472656 13.394531 -4.476562 13.03125 -3.625 C 12.675781 -2.78125 12.195312 -2.070312 11.59375 -1.5 C 10.988281 -0.9375 10.304688 -0.515625 9.546875 -0.234375 C 8.796875 0.046875 8.023438 0.1875 7.234375 0.1875 Z M 7.234375 0.1875 "/></g></g></g><g fill="#ffffff" fill-opacity="1"><g transform="translate(27.719049, 14.188897)"><g><path d="M 7.234375 0.1875 C 6.441406 0.1875 5.664062 0.046875 4.90625 -0.234375 C 4.144531 -0.515625 3.460938 -0.9375 2.859375 -1.5 C 2.253906 -2.070312 1.769531 -2.78125 1.40625 -3.625 C 1.050781 -4.476562 0.875 -5.472656 0.875 -6.609375 L 0.875 -12.390625 L 3.328125 -12.390625 L 3.328125 -6.609375 C 3.328125 -5.554688 3.519531 -4.675781 3.90625 -3.96875 C 4.289062 -3.269531 4.78125 -2.742188 5.375 -2.390625 C 5.96875 -2.046875 6.582031 -1.875 7.21875 -1.875 C 7.875 -1.875 8.492188 -2.046875 9.078125 -2.390625 C 9.671875 -2.742188 10.160156 -3.269531 10.546875 -3.96875 C 10.929688 -4.675781 11.125 -5.554688 11.125 -6.609375 L 11.125 -12.390625 L 13.578125 -12.390625 L 13.578125 -6.609375 C 13.578125 -5.472656 13.394531 -4.476562 13.03125 -3.625 C 12.675781 -2.78125 12.195312 -2.070312 11.59375 -1.5 C 10.988281 -0.9375 10.304688 -0.515625 9.546875 -0.234375 C 8.796875 0.046875 8.023438 0.1875 7.234375 0.1875 Z M 7.234375 0.1875 "/></g></g></g><g fill="#ffffff" fill-opacity="1"><g transform="translate(42.000814, 14.188897)"><g><path d="M 0.625 0 L -0.125 -1.875 L 6.5625 -8.28125 L 8.9375 -10.203125 L 0.421875 -10.203125 L 0.421875 -12.359375 L 11.59375 -12.359375 L 12.234375 -10.609375 L 5.234375 -3.96875 L 3.0625 -2.171875 L 12.125 -2.171875 L 12.125 0 Z M 0.625 0 "/></g></g></g><g fill="#ffffff" fill-opacity="1"><g transform="translate(55.149962, 14.188897)"><g><path d="M 0.625 0 L -0.125 -1.875 L 6.5625 -8.28125 L 8.9375 -10.203125 L 0.421875 -10.203125 L 0.421875 -12.359375 L 11.59375 -12.359375 L 12.234375 -10.609375 L 5.234375 -3.96875 L 3.0625 -2.171875 L 12.125 -2.171875 L 12.125 0 Z M 0.625 0 "/></g></g></g><g fill="#ffffff" fill-opacity="1"><g transform="translate(67.555811, 14.188897)"><g><path d="M 0.875 0 L 0.875 -12.390625 L 10.78125 -12.390625 L 10.78125 -10.28125 L 3.234375 -10.28125 L 3.234375 -7.203125 L 10.484375 -7.203125 L 10.484375 -5.171875 L 3.234375 -5.171875 L 3.234375 -2.109375 L 10.78125 -2.109375 L 10.78125 0 Z M 0.875 0 "/></g></g></g><g fill="#ffffff" fill-opacity="1"><g transform="translate(78.988302, 14.188897)"><g><path d="M 0.890625 0 L 0.890625 -12.390625 L 7.296875 -12.390625 C 7.835938 -12.390625 8.429688 -12.316406 9.078125 -12.171875 C 9.734375 -12.035156 10.3125 -11.765625 10.8125 -11.359375 C 11.25 -11.003906 11.585938 -10.554688 11.828125 -10.015625 C 12.066406 -9.484375 12.1875 -8.941406 12.1875 -8.390625 C 12.1875 -7.847656 12.054688 -7.300781 11.796875 -6.75 C 11.546875 -6.207031 11.191406 -5.742188 10.734375 -5.359375 C 10.128906 -4.890625 9.351562 -4.628906 8.40625 -4.578125 L 12.328125 -0.109375 L 12.328125 0 L 9.546875 0 L 5.625 -4.515625 L 3.34375 -4.515625 L 3.34375 0 Z M 3.34375 -6.53125 L 7.46875 -6.53125 C 8.1875 -6.53125 8.738281 -6.679688 9.125 -6.984375 C 9.519531 -7.285156 9.71875 -7.757812 9.71875 -8.40625 C 9.71875 -9.113281 9.476562 -9.601562 9 -9.875 C 8.53125 -10.15625 7.960938 -10.296875 7.296875 -10.296875 L 3.34375 -10.296875 Z M 3.34375 -6.53125 "/></g></g></g><g fill="#ffffff" fill-opacity="1"><g transform="translate(91.624218, 14.188897)"><g><path d="M 0.5625 0 L 0.5625 -2.125 L 2.671875 -2.125 L 2.671875 0 Z M 0.5625 0 "/></g></g></g><g fill="#ffffff" fill-opacity="1"><g transform="translate(95.163684, 14.188897)"><g><path d="M 0.890625 0 L 0.890625 -12.390625 L 3.34375 -12.390625 L 3.34375 0 Z M 0.890625 0 "/></g></g></g><g fill="#ffffff" fill-opacity="1"><g transform="translate(100.048144, 14.188897)"><g><path d="M 6.84375 0.171875 C 5.90625 0.171875 5.035156 0.015625 4.234375 -0.296875 C 3.441406 -0.609375 2.753906 -1.050781 2.171875 -1.625 C 1.585938 -2.207031 1.128906 -2.890625 0.796875 -3.671875 C 0.472656 -4.453125 0.3125 -5.3125 0.3125 -6.25 C 0.3125 -7.175781 0.472656 -8.03125 0.796875 -8.8125 C 1.128906 -9.59375 1.585938 -10.269531 2.171875 -10.84375 C 2.753906 -11.414062 3.441406 -11.859375 4.234375 -12.171875 C 5.035156 -12.484375 5.90625 -12.640625 6.84375 -12.640625 C 7.800781 -12.640625 8.675781 -12.484375 9.46875 -12.171875 C 10.269531 -11.859375 10.960938 -11.414062 11.546875 -10.84375 C 12.128906 -10.269531 12.582031 -9.59375 12.90625 -8.8125 C 13.226562 -8.03125 13.390625 -7.175781 13.390625 -6.25 C 13.390625 -5.3125 13.226562 -4.453125 12.90625 -3.671875 C 12.582031 -2.890625 12.128906 -2.207031 11.546875 -1.625 C 10.960938 -1.050781 10.269531 -0.609375 9.46875 -0.296875 C 8.675781 0.015625 7.800781 0.171875 6.84375 0.171875 Z M 6.84375 -1.921875 C 7.65625 -1.921875 8.363281 -2.109375 8.96875 -2.484375 C 9.582031 -2.867188 10.0625 -3.382812 10.40625 -4.03125 C 10.75 -4.6875 10.921875 -5.425781 10.921875 -6.25 C 10.921875 -7.070312 10.75 -7.804688 10.40625 -8.453125 C 10.0625 -9.109375 9.582031 -9.617188 8.96875 -9.984375 C 8.363281 -10.359375 7.65625 -10.546875 6.84375 -10.546875 C 6.0625 -10.546875 5.363281 -10.359375 4.75 -9.984375 C 4.132812 -9.617188 3.65625 -9.109375 3.3125 -8.453125 C 2.96875 -7.804688 2.796875 -7.070312 2.796875 -6.25 C 2.796875 -5.425781 2.96875 -4.6875 3.3125 -4.03125 C 3.65625 -3.382812 4.132812 -2.867188 4.75 -2.484375 C 5.363281 -2.109375 6.0625 -1.921875 6.84375 -1.921875 Z M 6.84375 -1.921875 "/></g></g></g></g></g></svg>